#define image_width  10
#define image_height 10
static unsigned char image_bits[] = {
  0x30,0xfc,0x48,0xfc,0x48,0xfc,0x30,0xfc,0x00,0xfc,0x00,0xfc,
  0x00,0xfc,0x00,0xfc,0x00,0xfc,0x00,0xfc
};
