#define image_width  10
#define image_height 10
static unsigned char image_bits[] = {
  0x30,0xfc,0x30,0xfc,0x30,0xfc,0x30,0xfc,0x30,0xfc,0x32,0xfd,
  0xb6,0xfd,0xfc,0xfc,0x78,0xfc,0x30,0xfc
};
