#define image_width  10
#define image_height 10
static unsigned char image_bits[] = {
  0x20,0xfc,0x10,0xfc,0x08,0xfc,0x7c,0xfc,0x20,0xfc,0x10,0xfc,
  0xf8,0xfc,0x40,0xfc,0x20,0xfc,0x10,0xfc
};
