#define image_width  12
#define image_height 20
static unsigned char image_bits[] = {
  0x00,0xf0,0x00,0xf0,0x00,0xf0,0x00,0xf0,0x00,0xf0,0x0c,0xf3,
  0x02,0xf4,0x01,0xf8,0x19,0xf9,0x35,0xfb,0xcd,0xfa,0x89,0xf9,
  0x01,0xf8,0x02,0xf4,0x0c,0xf3,0x00,0xf0,0x00,0xf0,0x00,0xf0,
  0x00,0xf0,0x00,0xf0
};
